<svg width="40" height="40" viewBox="0 0 40 40" fill="none" xmlns="http://www.w3.org/2000/svg">
<path fill-rule="evenodd" clip-rule="evenodd" d="M20 20C15.567 20 11.9619 16.412 11.9619 12C11.9619 7.58797 15.567 3.99997 20 3.99997C24.433 3.99997 28.0381 7.58797 28.0381 12C28.0381 16.412 24.433 20 20 20ZM27.5518 21.3459C30.7409 18.7919 32.5997 14.6619 31.9165 10.1399C31.1227 4.89387 26.7379 0.695954 21.4449 0.0839538C14.1402 -0.762047 7.94288 4.89797 7.94288 12C7.94288 15.78 9.70321 19.1479 12.4482 21.3459C5.70426 23.8679 0.780926 29.79 0.00926813 37.782C-0.103264 38.964 0.823135 40 2.01679 40C3.03964 40 3.91178 39.232 4.0022 38.218C4.80802 29.292 11.6746 24 20 24C28.3255 24 35.192 29.292 35.9978 38.218C36.0882 39.232 36.9604 40 37.9832 40C39.1769 40 40.1033 38.964 39.9907 37.782C39.2191 29.79 34.2958 23.8679 27.5518 21.3459Z" fill="black"/>
</svg>
