<svg width="40" height="40" viewBox="0 0 40 40" fill="none" xmlns="http://www.w3.org/2000/svg">
<mask id="path-1-inside-1_56_256" fill="white">
<path d="M24.9088 2.08337C22.6297 2.08334 20.7923 2.08331 19.3475 2.27757C17.8473 2.47927 16.5841 2.91076 15.5809 3.91396C14.706 4.78884 14.264 5.86397 14.0319 7.12729C13.8064 8.35489 13.7633 9.85721 13.7533 11.6598C13.7494 12.3501 14.3059 12.9128 14.9963 12.9167C15.6866 12.9205 16.2494 12.364 16.2532 11.6737C16.2634 9.85117 16.3107 8.55937 16.4908 7.57896C16.6643 6.63427 16.943 6.08747 17.3487 5.68172C17.81 5.22046 18.4577 4.91971 19.6805 4.75529C20.9395 4.58602 22.608 4.58337 25.0003 4.58337H26.667C29.0593 4.58337 30.7278 4.58602 31.9868 4.75529C33.2098 4.91971 33.8573 5.22046 34.3187 5.68172C34.78 6.14299 35.0807 6.79062 35.2452 8.01357C35.4143 9.27249 35.417 10.941 35.417 13.3334V26.6667C35.417 29.059 35.4143 30.7275 35.2452 31.9865C35.0807 33.2095 34.78 33.857 34.3187 34.3184C33.8573 34.7797 33.2098 35.0804 31.9868 35.2449C30.7278 35.414 29.0593 35.4167 26.667 35.4167H25.0003C22.608 35.4167 20.9395 35.414 19.6805 35.2449C18.4577 35.0804 17.81 34.7797 17.3487 34.3184C16.943 33.9125 16.6643 33.3659 16.4908 32.4212C16.3107 31.4407 16.2634 30.1489 16.2532 28.3264C16.2494 27.636 15.6866 27.0795 14.9963 27.0834C14.3059 27.0872 13.7494 27.65 13.7533 28.3404C13.7633 30.1429 13.8064 31.6452 14.0319 32.8727C14.264 34.136 14.706 35.2112 15.5809 36.0862C16.5841 37.0894 17.8473 37.5209 19.3475 37.7225C20.7923 37.9167 22.6297 37.9167 24.9088 37.9167H26.7585C29.0378 37.9167 30.875 37.9167 32.32 37.7225C33.8202 37.5209 35.0832 37.0894 36.0865 36.0862C37.0897 35.0829 37.5212 33.8199 37.7228 32.3197C37.9172 30.8747 37.917 29.0375 37.917 26.7582V13.2419C37.917 10.9626 37.9172 9.12541 37.7228 7.68046C37.5212 6.18027 37.0897 4.91716 36.0865 3.91396C35.0832 2.91076 33.8202 2.47927 32.32 2.27757C30.875 2.08331 29.0378 2.08334 26.7585 2.08337H24.9088Z"/>
</mask>
<path d="M24.9088 2.08337C22.6297 2.08334 20.7923 2.08331 19.3475 2.27757C17.8473 2.47927 16.5841 2.91076 15.5809 3.91396C14.706 4.78884 14.264 5.86397 14.0319 7.12729C13.8064 8.35489 13.7633 9.85721 13.7533 11.6598C13.7494 12.3501 14.3059 12.9128 14.9963 12.9167C15.6866 12.9205 16.2494 12.364 16.2532 11.6737C16.2634 9.85117 16.3107 8.55937 16.4908 7.57896C16.6643 6.63427 16.943 6.08747 17.3487 5.68172C17.81 5.22046 18.4577 4.91971 19.6805 4.75529C20.9395 4.58602 22.608 4.58337 25.0003 4.58337H26.667C29.0593 4.58337 30.7278 4.58602 31.9868 4.75529C33.2098 4.91971 33.8573 5.22046 34.3187 5.68172C34.78 6.14299 35.0807 6.79062 35.2452 8.01357C35.4143 9.27249 35.417 10.941 35.417 13.3334V26.6667C35.417 29.059 35.4143 30.7275 35.2452 31.9865C35.0807 33.2095 34.78 33.857 34.3187 34.3184C33.8573 34.7797 33.2098 35.0804 31.9868 35.2449C30.7278 35.414 29.0593 35.4167 26.667 35.4167H25.0003C22.608 35.4167 20.9395 35.414 19.6805 35.2449C18.4577 35.0804 17.81 34.7797 17.3487 34.3184C16.943 33.9125 16.6643 33.3659 16.4908 32.4212C16.3107 31.4407 16.2634 30.1489 16.2532 28.3264C16.2494 27.636 15.6866 27.0795 14.9963 27.0834C14.3059 27.0872 13.7494 27.65 13.7533 28.3404C13.7633 30.1429 13.8064 31.6452 14.0319 32.8727C14.264 34.136 14.706 35.2112 15.5809 36.0862C16.5841 37.0894 17.8473 37.5209 19.3475 37.7225C20.7923 37.9167 22.6297 37.9167 24.9088 37.9167H26.7585C29.0378 37.9167 30.875 37.9167 32.32 37.7225C33.8202 37.5209 35.0832 37.0894 36.0865 36.0862C37.0897 35.0829 37.5212 33.8199 37.7228 32.3197C37.9172 30.8747 37.917 29.0375 37.917 26.7582V13.2419C37.917 10.9626 37.9172 9.12541 37.7228 7.68046C37.5212 6.18027 37.0897 4.91716 36.0865 3.91396C35.0832 2.91076 33.8202 2.47927 32.32 2.27757C30.875 2.08331 29.0378 2.08334 26.7585 2.08337H24.9088Z" fill="#EB1C1C"/>
<path d="M24.9088 2.08337L24.9088 5.08337H24.9088V2.08337ZM19.3475 2.27757L19.7472 5.25082L19.7473 5.25082L19.3475 2.27757ZM15.5809 3.91396L17.7022 6.0353L17.7023 6.03526L15.5809 3.91396ZM14.0319 7.12729L11.0813 6.58531L11.0813 6.58532L14.0319 7.12729ZM13.7533 11.6598L10.7533 11.643L10.7533 11.6431L13.7533 11.6598ZM16.2532 11.6737L13.2533 11.657L13.2533 11.657L16.2532 11.6737ZM16.4908 7.57896L19.4414 8.12093L19.4414 8.12092L16.4908 7.57896ZM17.3487 5.68172L15.2275 3.56025L15.2271 3.56062L17.3487 5.68172ZM19.6805 4.75529L19.2807 1.78204L19.2807 1.78205L19.6805 4.75529ZM31.9868 4.75529L31.5871 7.72854L31.5871 7.72854L31.9868 4.75529ZM35.2452 8.01357L38.2184 7.61404L38.2184 7.61364L35.2452 8.01357ZM35.2452 31.9865L38.2184 32.3865L38.2184 32.386L35.2452 31.9865ZM34.3187 34.3184L32.1973 32.1971L34.3187 34.3184ZM31.9868 35.2449L32.3863 38.2182L32.3867 38.2181L31.9868 35.2449ZM19.6805 35.2449L19.2805 38.2181L19.281 38.2182L19.6805 35.2449ZM17.3487 34.3184L15.2269 36.4393L15.2273 36.4397L17.3487 34.3184ZM16.4908 32.4212L13.5401 32.9631L13.5402 32.9632L16.4908 32.4212ZM16.2532 28.3264L13.2533 28.343L13.2533 28.3431L16.2532 28.3264ZM13.7533 28.3404L10.7533 28.357L10.7533 28.3571L13.7533 28.3404ZM14.0319 32.8727L16.9826 32.3307L16.9826 32.3307L14.0319 32.8727ZM15.5809 36.0862L13.4595 38.2074L13.4596 38.2075L15.5809 36.0862ZM19.3475 37.7225L18.9478 40.6958L18.9479 40.6958L19.3475 37.7225ZM32.32 37.7225L32.7195 40.6958L32.7197 40.6958L32.32 37.7225ZM36.0865 36.0862L38.2076 38.2077L38.208 38.2073L36.0865 36.0862ZM37.7228 32.3197L34.7496 31.9198L34.7496 31.92L37.7228 32.3197ZM37.7228 7.68046L34.7496 8.08015L34.7496 8.08033L37.7228 7.68046ZM36.0865 3.91396L38.2078 1.79267L38.2077 1.7925L36.0865 3.91396ZM32.32 2.27757L32.7197 -0.695671L32.7197 -0.695676L32.32 2.27757ZM26.7585 2.08337V5.08337H26.7585L26.7585 2.08337ZM24.9089 -0.916625C22.7079 -0.916657 20.6374 -0.922858 18.9477 -0.69567L19.7473 5.25082C20.9472 5.08947 22.5514 5.08334 24.9088 5.08337L24.9089 -0.916625ZM18.9477 -0.695671C17.1162 -0.449414 15.1137 0.138545 13.4596 1.79266L17.7023 6.03526C18.0546 5.68297 18.5785 5.40796 19.7472 5.25082L18.9477 -0.695671ZM13.4596 1.79262C12.0212 3.23102 11.3834 4.94067 11.0813 6.58531L16.9826 7.66927C17.1446 6.78728 17.3909 6.34667 17.7022 6.0353L13.4596 1.79262ZM11.0813 6.58532C10.8014 8.10909 10.7632 9.86325 10.7533 11.643L16.7532 11.6765C16.7634 9.85117 16.8115 8.60069 16.9826 7.66926L11.0813 6.58532ZM10.7533 11.6431C10.7403 13.9902 12.6324 15.9036 14.9796 15.9166L15.013 9.91674C15.9795 9.92213 16.7586 10.7099 16.7532 11.6764L10.7533 11.6431ZM14.9796 15.9166C17.3268 15.9297 19.2401 14.0375 19.2532 11.6903L13.2533 11.657C13.2586 10.6905 14.0465 9.91135 15.013 9.91674L14.9796 15.9166ZM19.2532 11.6904C19.2635 9.84261 19.3159 8.80425 19.4414 8.12093L13.5402 7.03698C13.3055 8.3145 13.2633 9.85974 13.2533 11.657L19.2532 11.6904ZM19.4414 8.12092C19.4966 7.82057 19.5468 7.70634 19.5529 7.69324C19.5546 7.68963 19.5472 7.70591 19.5281 7.73323C19.5087 7.76104 19.4877 7.78535 19.4702 7.80283L15.2271 3.56062C14.2597 4.5282 13.7843 5.70791 13.5401 7.03699L19.4414 8.12092ZM19.4698 7.8032C19.449 7.82401 19.4205 7.84799 19.3897 7.86831C19.3603 7.88778 19.3494 7.89022 19.3715 7.88112C19.4282 7.85779 19.6244 7.78983 20.0803 7.72854L19.2807 1.78205C17.7232 1.99147 16.3381 2.4498 15.2275 3.56025L19.4698 7.8032ZM20.0802 7.72854C21.0925 7.59245 22.5215 7.58337 25.0003 7.58337V1.58337C22.6945 1.58337 20.7865 1.5796 19.2807 1.78204L20.0802 7.72854ZM25.0003 7.58337H26.667V1.58337H25.0003V7.58337ZM26.667 7.58337C29.1458 7.58337 30.5748 7.59245 31.5871 7.72854L32.3866 1.78204C30.8808 1.5796 28.9729 1.58337 26.667 1.58337V7.58337ZM31.5871 7.72854C32.0431 7.78984 32.2392 7.8578 32.2958 7.88109C32.3179 7.89018 32.307 7.88772 32.2775 7.86824C32.2467 7.84791 32.2182 7.82395 32.1975 7.8032L36.4398 3.56025C35.3293 2.44985 33.9444 1.99148 32.3865 1.78204L31.5871 7.72854ZM32.1975 7.8032C32.1766 7.78231 32.1526 7.7537 32.1322 7.72288C32.1127 7.69334 32.1102 7.68243 32.1193 7.70452C32.1426 7.76116 32.2106 7.9574 32.2719 8.41351L38.2184 7.61364C38.0089 6.05639 37.5507 4.67101 36.4398 3.56025L32.1975 7.8032ZM32.2719 8.41311C32.4079 9.42541 32.417 10.8546 32.417 13.3334H38.417C38.417 11.0274 38.4207 9.11957 38.2184 7.61404L32.2719 8.41311ZM32.417 13.3334V26.6667H38.417V13.3334H32.417ZM32.417 26.6667C32.417 29.1454 32.4079 30.5746 32.2719 31.587L38.2184 32.386C38.4207 30.8805 38.417 28.9727 38.417 26.6667H32.417ZM32.2719 31.5866C32.2106 32.0427 32.1426 32.2389 32.1193 32.2955C32.1102 32.3176 32.1127 32.3067 32.1322 32.2772C32.1525 32.2464 32.1765 32.2178 32.1973 32.1971L36.44 36.4397C37.5507 35.329 38.0089 33.944 38.2184 32.3865L32.2719 31.5866ZM32.1973 32.1971C32.2181 32.1763 32.2467 32.1523 32.2775 32.1319C32.307 32.1124 32.3179 32.1099 32.2958 32.119C32.2392 32.1423 32.043 32.2103 31.5869 32.2716L32.3867 38.2181C33.9443 38.0086 35.3293 37.5504 36.44 36.4397L32.1973 32.1971ZM31.5873 32.2716C30.5749 32.4076 29.1457 32.4167 26.667 32.4167V38.4167C28.9729 38.4167 30.8807 38.4205 32.3863 38.2182L31.5873 32.2716ZM26.667 32.4167H25.0003V38.4167H26.667V32.4167ZM25.0003 32.4167C22.5216 32.4167 21.0924 32.4076 20.08 32.2716L19.281 38.2182C20.7866 38.4205 22.6944 38.4167 25.0003 38.4167V32.4167ZM20.0805 32.2717C19.6244 32.2103 19.4282 32.1423 19.3715 32.119C19.3494 32.1099 19.3603 32.1123 19.3898 32.1318C19.4205 32.1522 19.4491 32.1762 19.47 32.1971L15.2273 36.4397C16.3381 37.5504 17.7233 38.0086 19.2805 38.2181L20.0805 32.2717ZM19.4704 32.1975C19.4878 32.2149 19.5087 32.2391 19.5281 32.2668C19.5471 32.2941 19.5545 32.3104 19.5529 32.3068C19.5468 32.2937 19.4966 32.1795 19.4414 31.8792L13.5402 32.9632C13.7843 34.2925 14.2599 35.4718 15.2269 36.4393L19.4704 32.1975ZM19.4414 31.8793C19.3159 31.1958 19.2635 30.1574 19.2532 28.3097L13.2533 28.3431C13.2633 30.1403 13.3055 31.6856 13.5401 32.9631L19.4414 31.8793ZM19.2532 28.3097C19.2401 25.9624 17.3267 24.0704 14.9796 24.0834L15.0129 30.0833C14.0466 30.0887 13.2586 29.3097 13.2533 28.343L19.2532 28.3097ZM14.9796 24.0834C12.6322 24.0965 10.7403 26.0102 10.7533 28.357L16.7532 28.3237C16.7586 29.2899 15.9797 30.078 15.0129 30.0833L14.9796 24.0834ZM10.7533 28.3571C10.7632 30.1368 10.8014 31.891 11.0813 33.4147L16.9826 32.3307C16.8115 31.3994 16.7634 30.1489 16.7532 28.3236L10.7533 28.3571ZM11.0813 33.4147C11.3834 35.0594 12.0212 36.7689 13.4595 38.2074L17.7024 33.965C17.3909 33.6535 17.1446 33.2127 16.9826 32.3307L11.0813 33.4147ZM13.4596 38.2075C15.1137 39.8616 17.1162 40.4496 18.9478 40.6958L19.7472 34.7493C18.5785 34.5922 18.0545 34.3172 17.7022 33.9649L13.4596 38.2075ZM18.9479 40.6958C20.6375 40.9229 22.7078 40.9167 24.9088 40.9167V34.9167C22.5515 34.9167 20.9472 34.9105 19.7471 34.7493L18.9479 40.6958ZM24.9088 40.9167H26.7585V34.9167H24.9088V40.9167ZM26.7585 40.9167C28.9597 40.9167 31.0298 40.9229 32.7195 40.6958L31.9205 34.7493C30.7201 34.9106 29.116 34.9167 26.7585 34.9167V40.9167ZM32.7197 40.6958C34.5515 40.4495 36.5536 39.8615 38.2076 38.2077L33.9653 33.9647C33.6128 34.3172 33.0888 34.5922 31.9203 34.7493L32.7197 40.6958ZM38.208 38.2073C39.8618 36.5533 40.4498 34.5512 40.6961 32.7194L34.7496 31.92C34.5925 33.0885 34.3175 33.6125 33.965 33.9651L38.208 38.2073ZM40.6961 32.7196C40.9233 31.0296 40.917 28.959 40.917 26.7582H34.917C34.917 29.116 34.911 30.7198 34.7496 31.9198L40.6961 32.7196ZM40.917 26.7582V13.2419H34.917V26.7582H40.917ZM40.917 13.2419C40.917 11.0411 40.9233 8.97048 40.6961 7.28058L34.7496 8.08033C34.911 9.28033 34.917 10.8841 34.917 13.2419H40.917ZM40.6961 7.28077C40.4498 5.44904 39.8618 3.44672 38.2078 1.79267L33.9651 6.03524C34.3175 6.38759 34.5925 6.91151 34.7496 8.08015L40.6961 7.28077ZM38.2077 1.7925C36.5536 0.138625 34.5515 -0.449387 32.7197 -0.695671L31.9202 5.25082C33.0888 5.40794 33.6127 5.68289 33.9653 6.03542L38.2077 1.7925ZM32.7197 -0.695676C31.0299 -0.922856 28.9596 -0.916657 26.7584 -0.916625L26.7585 5.08337C29.1161 5.08334 30.7201 5.08947 31.9203 5.25083L32.7197 -0.695676ZM26.7585 -0.916625H24.9088V5.08337H26.7585V-0.916625Z" fill="#EB1C1C" mask="url(#path-1-inside-1_56_256)"/>
<mask id="path-3-inside-2_56_256" fill="white">
<path d="M27.6529 18.75C28.3433 18.75 28.9029 19.3097 28.9029 20C28.9029 20.6904 28.3433 21.25 27.6529 21.25H9.36533L12.6331 24.051C13.1573 24.5002 13.2179 25.2894 12.7687 25.8135C12.3194 26.3377 11.5303 26.3984 11.0061 25.949L5.17278 20.949C4.89572 20.7117 4.73627 20.3649 4.73627 20C4.73627 19.6352 4.89572 19.2884 5.17278 19.051L11.0061 14.051C11.5303 13.6017 12.3194 13.6624 12.7687 14.1865C13.2179 14.7107 13.1573 15.4998 12.6331 15.9491L9.36533 18.75H27.6529Z"/>
</mask>
<path d="M27.6529 18.75C28.3433 18.75 28.9029 19.3097 28.9029 20C28.9029 20.6904 28.3433 21.25 27.6529 21.25H9.36533L12.6331 24.051C13.1573 24.5002 13.2179 25.2894 12.7687 25.8135C12.3194 26.3377 11.5303 26.3984 11.0061 25.949L5.17278 20.949C4.89572 20.7117 4.73627 20.3649 4.73627 20C4.73627 19.6352 4.89572 19.2884 5.17278 19.051L11.0061 14.051C11.5303 13.6017 12.3194 13.6624 12.7687 14.1865C13.2179 14.7107 13.1573 15.4998 12.6331 15.9491L9.36533 18.75H27.6529Z" fill="#EB1C1C"/>
<path d="M9.36533 21.25V18.25H1.25572L7.41293 23.5278L9.36533 21.25ZM12.6331 24.051L10.6807 26.3288L10.681 26.329L12.6331 24.051ZM12.7687 25.8135L10.4909 23.8612L10.4909 23.8612L12.7687 25.8135ZM11.0061 25.949L12.9586 23.6714L12.9585 23.6713L11.0061 25.949ZM5.17278 20.949L7.12516 18.6713L7.12444 18.6706L5.17278 20.949ZM5.17278 19.051L7.12444 21.3294L7.12517 21.3288L5.17278 19.051ZM11.0061 14.051L12.9585 16.3287L12.9585 16.3287L11.0061 14.051ZM12.7687 14.1865L10.4909 16.1389L10.4909 16.1389L12.7687 14.1865ZM12.6331 15.9491L10.6808 13.6713L10.6807 13.6713L12.6331 15.9491ZM9.36533 18.75L7.41296 16.4723L1.25557 21.75H9.36533V18.75ZM27.6529 21.75C26.6864 21.75 25.9029 20.9665 25.9029 20H31.9029C31.9029 17.6528 30.0001 15.75 27.6529 15.75V21.75ZM25.9029 20C25.9029 19.0335 26.6864 18.25 27.6529 18.25V24.25C30.0001 24.25 31.9029 22.3472 31.9029 20H25.9029ZM27.6529 18.25H9.36533V24.25H27.6529V18.25ZM7.41293 23.5278L10.6807 26.3288L14.5855 21.7733L11.3177 18.9723L7.41293 23.5278ZM10.681 26.329C9.94665 25.6998 9.86206 24.5948 10.4909 23.8612L15.0464 27.7659C16.5738 25.9839 16.3678 23.3006 14.5852 21.773L10.681 26.329ZM10.4909 23.8612C11.12 23.1272 12.2249 23.0424 12.9586 23.6714L9.05359 28.2267C10.8356 29.7543 13.5188 29.5482 15.0465 27.7658L10.4909 23.8612ZM12.9585 23.6713L7.12516 18.6713L3.22041 23.2268L9.05374 28.2268L12.9585 23.6713ZM7.12444 18.6706C7.51334 19.0038 7.73627 19.4895 7.73627 20H1.73627C1.73627 21.2402 2.27809 22.4196 3.22113 23.2274L7.12444 18.6706ZM7.73627 20C7.73627 20.5105 7.51334 20.9963 7.12444 21.3294L3.22113 16.7726C2.2781 17.5804 1.73627 18.7599 1.73627 20H7.73627ZM7.12517 21.3288L12.9585 16.3287L9.05373 11.7732L3.22039 16.7733L7.12517 21.3288ZM12.9585 16.3287C12.2247 16.9577 11.1199 16.8727 10.4909 16.1389L15.0465 12.2342C13.5189 10.452 10.8358 10.2456 9.05371 11.7732L12.9585 16.3287ZM10.4909 16.1389C9.86191 15.4051 9.94687 14.3003 10.6808 13.6713L14.5854 18.2269C16.3676 16.6994 16.574 14.0163 15.0464 12.2341L10.4909 16.1389ZM10.6807 13.6713L7.41296 16.4723L11.3177 21.0278L14.5855 18.2269L10.6807 13.6713ZM9.36533 21.75H27.6529V15.75H9.36533V21.75Z" fill="#EB1C1C" mask="url(#path-3-inside-2_56_256)"/>
</svg>
