<svg width="40" height="40" viewBox="0 0 40 40" fill="none" xmlns="http://www.w3.org/2000/svg">
<path d="M33.75 3.75H13.75C11.625 3.75 10 6 10 8.75V26.25H8.75C6.625 26.25 5 28.5 5 31.25C5 34 6.625 36.25 8.75 36.25H28.75C30.875 36.25 32.5 34 32.5 31.25V10H36.25C37 10 37.5 9.5 37.5 8.75C37.5 6 35.875 3.75 33.75 3.75ZM15 12.5H22.5C23.25 12.5 23.75 13 23.75 13.75C23.75 14.5 23.25 15 22.5 15H15C14.25 15 13.75 14.5 13.75 13.75C13.75 13 14.25 12.5 15 12.5ZM15 16.25H18.75C19.5 16.25 20 16.75 20 17.5C20 18.25 19.5 18.75 18.75 18.75H15C14.25 18.75 13.75 18.25 13.75 17.5C13.75 16.75 14.25 16.25 15 16.25ZM25.5 33.75H8.75C8.25 33.75 7.5 32.75 7.5 31.25C7.5 29.75 8.25 28.75 8.75 28.75H25.5C25.125 29.5 25 30.375 25 31.25C25 32.125 25.25 33 25.5 33.75ZM32.625 7.5C32.875 6.75 33.375 6.25 33.75 6.25C34.125 6.25 34.5 6.75 34.875 7.5H32.625Z" fill="black"/>
</svg>
