<svg width="40" height="40" viewBox="0 0 40 40" fill="none" xmlns="http://www.w3.org/2000/svg">
<path d="M20 15C22.7614 15 25 17.2386 25 20C25 22.7614 22.7614 25 20 25C17.2386 25 15 22.7614 15 20C15 17.2386 17.2386 15 20 15Z" stroke="#1C274C" stroke-width="3"/>
<path d="M6.10205 22.268C6.88963 21.7732 7.39638 20.9302 7.39638 20.0002C7.39637 19.07 6.88962 18.227 6.10205 17.7322C5.56612 17.3955 5.22082 17.1264 4.97515 16.8062C4.43697 16.1047 4.19945 15.2184 4.31485 14.3419C4.40138 13.6845 4.78967 13.012 5.56623 11.6669C6.34282 10.3219 6.7311 9.64935 7.25712 9.24569C7.95848 8.70752 8.84492 8.47002 9.72142 8.58535C10.1215 8.63802 10.5271 8.80252 11.0866 9.09819C11.9091 9.53286 12.8926 9.55019 13.6983 9.08502C14.5038 8.61985 14.9805 7.75952 15.0152 6.83002C15.0389 6.19752 15.0993 5.76385 15.2537 5.39102C15.5921 4.57435 16.241 3.92536 17.0577 3.58702C17.6703 3.33336 18.4468 3.33335 20 3.33335C21.5532 3.33335 22.3297 3.33336 22.9423 3.58702C23.759 3.92536 24.408 4.57435 24.7463 5.39102C24.9007 5.76385 24.9612 6.19752 24.9848 6.82986C25.0195 7.75952 25.4962 8.61985 26.3018 9.08502C27.1073 9.55002 28.0908 9.53269 28.9132 9.09802C29.4728 8.80235 29.8785 8.63785 30.2785 8.58519C31.155 8.46969 32.0415 8.70735 32.7429 9.24552C33.2689 9.64902 33.6572 10.3217 34.4338 11.6667C34.7795 12.2655 35.0483 12.731 35.2477 13.1214M33.8978 17.732C33.1103 18.2269 32.6037 19.0699 32.6035 19.9999C32.6035 20.93 33.1103 21.7732 33.8978 22.268C34.4338 22.6047 34.779 22.8739 35.0247 23.194C35.5628 23.8954 35.8003 24.7818 35.685 25.6583C35.5985 26.3157 35.2102 26.9882 34.4335 28.3333C33.657 29.6783 33.2687 30.3509 32.7427 30.7545C32.0413 31.2927 31.1548 31.5302 30.2783 31.4148C29.8783 31.3621 29.4727 31.1977 28.9132 30.902C28.0907 30.4673 27.1072 30.45 26.3017 30.9151C25.4962 31.3802 25.0195 32.2405 24.9848 33.17C24.9612 33.8025 24.9007 34.2361 24.7463 34.609C24.408 35.4257 23.759 36.0746 22.9423 36.413C22.3297 36.6667 21.5532 36.6667 20 36.6667C18.4468 36.6667 17.6703 36.6667 17.0577 36.413C16.241 36.0746 15.5921 35.4257 15.2537 34.609C15.0993 34.2361 15.0389 33.8026 15.0152 33.1701C14.9804 32.2406 14.5038 31.3802 13.6982 30.9151C12.8926 30.45 11.9091 30.4674 11.0868 30.902C10.5272 31.1978 10.1215 31.3622 9.72143 31.4149C8.84493 31.5303 7.9585 31.2928 7.25713 30.7546C6.73112 30.3509 6.34283 29.6784 5.56625 28.3334C5.22053 27.7345 4.95177 27.269 4.75232 26.8788" stroke="#1C274C" stroke-width="3" stroke-linecap="round"/>
</svg>
